<svg xmlns="http://www.w3.org/2000/svg" viewBox="0 0 119.64 380.22"><defs><style>.cls-1{fill:#a98e6b;}</style></defs><g id="Capa_2" data-name="Capa 2"><g id="Capa_1-2" data-name="Capa 1"><path class="cls-1" d="M62.21,380.22c-12.25-.49-22.2-.74-32-2.75a58.41,58.41,0,0,1-17-6.52,16.73,16.73,0,0,1-6.57-6.72,26.8,26.8,0,0,1-3.69-13.05q-.56-71.67-1.58-143.33C1.18,195.11.5,182.39.05,169.66a64.41,64.41,0,0,1,4-25.79c2.92-7.58,7.17-14.07,13.75-19.08a79.32,79.32,0,0,0,11.08-10.2c5.69-6.38,7.9-14.33,8.69-22.66a330,330,0,0,0,1.37-41.36c-.11-3.44-.39-6.88-.73-10.31a10.55,10.55,0,0,0-2.26-6.2,9.5,9.5,0,0,1-1.61-4.42,46.13,46.13,0,0,1,0-17.41A29.1,29.1,0,0,1,37.68,4.3,6.79,6.79,0,0,1,43.24.87C47.86.5,52.49,0,57.11,0c6.35,0,12.7.51,19,.85A6.73,6.73,0,0,1,81.8,4.14,27.83,27.83,0,0,1,85.32,12a44.46,44.46,0,0,1-.07,17.8c-.37,1.87-1.53,3.59-2.32,5.38a10.36,10.36,0,0,0-1,2.5,68,68,0,0,0-1.12,9.08c-.25,13.4-.34,26.8.93,40.18.5,5.29.9,10.55,2.57,15.65A36.39,36.39,0,0,0,96.44,120.4c2.5,2,4.93,4,7.42,6A36.67,36.67,0,0,1,114,140a60.3,60.3,0,0,1,5.58,28.64c-2.55,56.5-1.38,113.06-2.61,169.58-.09,4.25-.63,8.52-.31,12.73.48,6.27-2.25,11.25-5.58,16a13.54,13.54,0,0,1-3.85,3.35,53.1,53.1,0,0,1-23.12,8C76.07,379.28,68,379.74,62.21,380.22Zm31.95-85.7c0,3.82,0,7.36,0,10.91.17,11.14.38,22.28.56,33.42,0,2.65,0,5.3.11,7.95a7.13,7.13,0,0,0,1,3.34,2,2,0,0,0,3.56-.11,11.27,11.27,0,0,0,.86-2.21c1.5-4.19,1.7-8.56,1.73-12.95.1-16.84-1.34-33.66-.3-50.52.7-11.25.65-22.54,1.16-33.8.45-9.94,1.27-19.85,1.81-29.78.24-4.63.11-9.28.32-13.91.55-12.18,1.87-24.33,1-36.55-.43-6.39-3.18-11.82-5.86-17.36-4.16,1.93-4.18,1.94-3.76,6.15.18,1.85.52,3.68.67,5.53.25,3.14-.5,4.07-3.58,4.35Q80.24,170.17,67,171.27c-2.77.24-5.57.81-8.31.62-9.39-.66-18.76-1.6-28.14-2.4-3.3-.28-6.61-.51-9.92-.71-2.15-.13-3.68.72-3.83,3.05-.25,3.68-.61,7.36-.51,11q1.07,42.76,2.33,85.54c.19,6.23.86,12.44,1.35,18.66a7.79,7.79,0,0,0,5.76,7c6.74,1.83,13.74,3.47,20.73,2.87a132.34,132.34,0,0,1,26.92.06c2.42.28,5-.36,7.44-.67C85.2,295.76,89.62,295.13,94.16,294.52ZM73.23,83.85c.51-15.61,1-30.64,1.47-45.28H44.9c.49,15,1,30,1.48,45.31A96.59,96.59,0,0,0,73.23,83.85ZM77.1,31.73C79,25.1,79.21,18.4,78.92,11.66a9.62,9.62,0,0,0-.69-2.26c-.57-1.74-1.69-2.7-3.58-2.24-5.64,1.36-11.33.37-17,.47-4.07.07-8.16-.24-12.23-.47-2.75-.16-3.24,0-4.12,2.56a13.37,13.37,0,0,0-.73,4.64c.17,4.23.49,8.45.9,12.66a37.08,37.08,0,0,0,1.05,4.71Zm-2.79,93.18c2-1.29,2.23-2.54,1.85-4.37-1.47-7-2.7-14-4-21a7.36,7.36,0,0,0-.7-2.66c-.44-.68-1.42-1.49-2.08-1.43A3.83,3.83,0,0,0,66.93,97a4.46,4.46,0,0,0-.4,2.68,99.17,99.17,0,0,0,1.43,11A38.08,38.08,0,0,0,74.31,124.91Zm12.8,7.65a4.65,4.65,0,0,0-4.76,4.3c-.17,2.75,2.46,5.37,5.56,5.55a4.08,4.08,0,0,0,4.46-3.95A6,6,0,0,0,87.11,132.56Z"></path><path class="cls-1" d="M61.1,200c-6.09.18-12.19.45-18.29.51a15.38,15.38,0,0,1-5.42-.93A4,4,0,0,1,35.3,197c-.3-1.48.93-2.48,2.33-2.72a30.79,30.79,0,0,1,5.89-.58c11,.15,22,.41,33,.63,1.59,0,3.19,0,4.77.08s3.52.31,3.58,2.34S83,198.94,81.38,199c-4.38.23-8.75.49-13.12.65-2.38.09-4.77,0-7.16,0Z"></path><path class="cls-1" d="M60.34,219.47c-4.23,0-8.46,0-12.69,0-3.29,0-6.59-.18-9.89-.34-1.39-.06-2.72-.46-2.73-2.21s1.18-2.31,2.55-2.57a41.79,41.79,0,0,1,5.87-.88,198.65,198.65,0,0,1,34.81,1.68,18.21,18.21,0,0,1,2.7.63c1.23.35,2.43,1,1.93,2.44a3.34,3.34,0,0,1-2.35,1.5,21.78,21.78,0,0,1-4.35,0l-15.85-.69Z"></path><path class="cls-1" d="M62.82,280.32c-3.84,0-7.69,0-11.53,0a7,7,0,0,1-2.34-.25c-.54-.21-1.25-.86-1.26-1.33a2.41,2.41,0,0,1,.9-1.93,9.13,9.13,0,0,1,3.8-1c7.94.07,15.88.25,23.81.44a4,4,0,0,1,1.87.57,1.5,1.5,0,0,1-.22,2.78,13.54,13.54,0,0,1-3.9.63c-3.71.08-7.42,0-11.13,0Z"></path><path class="cls-1" d="M68.23,261.17a35.23,35.23,0,0,1-10.26.06c.11-.81,0-1.76.3-1.92a12.43,12.43,0,0,1,3.93-1.44C66.45,257.32,67.33,257.83,68.23,261.17Z"></path><path class="cls-1" d="M65.48,81.77a23.9,23.9,0,0,1-.79-4.07c-.07-9.52-.07-19,0-28.55,0-1.81-.12-3.73,2.09-5.19a7.6,7.6,0,0,1,1.16,2.32c.64,9.35,1.18,18.71,1.8,28.06C69.88,77.35,68.86,79.69,65.48,81.77Z"></path><path class="cls-1" d="M71.91,24.17C68.21,22.28,66.32,19,67,16.41a3.39,3.39,0,0,1,1.9-2.11c1.31-.38,1.71.87,1.88,2C71.16,18.65,71.48,21.06,71.91,24.17Z"></path></g></g></svg>