<svg xmlns="http://www.w3.org/2000/svg" viewBox="0 0 119.98 292.57"><defs><style>.cls-1{fill:#a98e6b;}</style></defs><g id="Capa_2" data-name="Capa 2"><g id="Capa_1-2" data-name="Capa 1"><path class="cls-1" d="M73.48,257c9.42,2.42,18.59,4.6,27.64,7.21a34,34,0,0,1,9.49,4.48c6.31,4.29,6,10.95-.81,14.35a96.7,96.7,0,0,1-18.09,7,76,76,0,0,1-18,2.43c-11.55.22-23.13-.05-34.68-.54-10.19-.43-19.58-4.09-28.52-8.72-7-3.62-7.31-10.3-.77-14.68a33.27,33.27,0,0,1,9.13-4.28c9.05-2.59,18.22-4.8,27.74-7.26,6-16.27.36-63.67-.42-73.24-.74-9.18-5.25-16.05-12.71-21.31-11.34-8-20.49-17.82-26.66-30.55C1.85,121.61-.77,111.23.2,99.71s2.27-23,5-34.29c1.91-8.06,2.18-16.49,3.65-24.67,1.88-10.54,4.21-21,6.35-31.5A29.81,29.81,0,0,0,16,4.79,4,4,0,0,1,19.41.62,30.56,30.56,0,0,1,25.3,0Q60,0,94.71,0a35.4,35.4,0,0,1,5.9.56,4.07,4.07,0,0,1,3.59,3.63c.34,2,.63,4.1,1.15,6.09,3.64,14,5.84,28.16,7.7,42.44.86,6.69,2.21,13.34,3.61,19.95a169.66,169.66,0,0,1,3.23,40.4,10.37,10.37,0,0,1-.54,3.75c-3.57,8.12-6.41,16.73-11.14,24.13a75,75,0,0,1-22.06,22c-6.76,4.47-11.28,10.87-11.94,19C72.24,206.38,67.82,241.46,73.48,257ZM22.88,7.56a32.77,32.77,0,0,0-1.51,4.65c-1.48,8.48-2.77,17-4.27,25.46-3.32,18.76-6.88,37.47-10,56.25-2,12-1.55,23.73,4.82,34.83,5.46,9.52,13.3,16.71,21.23,23.91,2.8,2.55,5.94,4.74,8.87,7.16,8.36,6.92,12.34,16.2,14.19,26.61a3.53,3.53,0,0,1,0,1.68c-1.87,5.47,2.06,40.94.45,62.85a99.76,99.76,0,0,1-2.33,14.5c-1.19,5.3-5.35,6-9.12,7.69-.11.05-.4-.33-.77-.65l2.18-4.77c-6.43-.7-12,1.11-17.65,2.32s-11.48,2.19-17.22,4.69c3.47,3.22,20.38,9,41.79,9.09,19,.12,51.45-3.87,55.35-8.95-7.29-3.78-29.49-8.13-34.5-6.79l2.43,4.55-.68.81c-1-.44-2.11-.82-3.12-1.33s-1.82-1.39-2.83-1.63c-1.83-.44-2.38-1.72-2.91-3.25-3.8-11-4.14-22.42-4.44-33.82-.45-17.38,2-34.64,2.85-52a22.62,22.62,0,0,1,4.56-12.57,74.24,74.24,0,0,1,15.59-15.42,44.89,44.89,0,0,0,5.27-4.22c4.26-4.31,8.84-8.43,12.42-13.28s6.75-9.92,8.56-15.42c2.52-7.64,2.74-15.84,1.67-23.9-.69-5.16-1.88-10.26-2.78-15.4q-6-34.18-12-68.37a45.16,45.16,0,0,0-1.6-5.31Z"/><path class="cls-1" d="M88.37,87.89c-1.79-9.12-3.58-17.52-5.06-26-2.12-12.22-4-24.48-6-36.73-.13-.82-.43-1.61-.64-2.42-.43-1.66.77-4.15,2.19-4.3,1.77-.2,2.52,1.05,2.88,2.5.87,3.42,1.89,6.81,2.44,10.29,2.36,15,4.57,30.11,6.84,45.17.53,3.49,1.14,7,1.66,10.45A4.16,4.16,0,0,0,96,90.74a23.51,23.51,0,0,1,2.38.88c6.47,2.33,8.37,4.91,8.53,11.76.32,13.14-4.09,24.37-12.51,34.54-8.84,10.67-20.33,17.25-32.22,23.5a4.06,4.06,0,0,1-4.36-.11c-7-4.21-14.5-7.78-20.92-12.74C26,140.15,17.35,129.73,14.39,115.76a38.78,38.78,0,0,1-.28-17.19c.8-3.4,2.73-5.13,5.89-6.45a78.25,78.25,0,0,1,31.39-5.75q14.17.15,28.35.52C82.37,87,85,87.49,88.37,87.89ZM56.06,100.63v-.49c-3.24,0-6.49.1-9.72,0-3.66-.15-7.32-.53-11-.72-1.26-.06-2.7,0-3,1.7s1.11,2.21,2.3,2.56a61.17,61.17,0,0,0,9.39,2.44,119.92,119.92,0,0,0,32.06,0,57.1,57.1,0,0,0,10.14-2.84,2.64,2.64,0,0,0,1.39-2.17c-.12-.65-1.28-1.2-2.08-1.6a3.57,3.57,0,0,0-1.67-.07Z"/></g></g></svg>