<svg xmlns="http://www.w3.org/2000/svg" viewBox="0 0 510.72 281.5"><defs><style>.cls-1{fill:#a98e6b;}</style></defs><g id="Capa_2" data-name="Capa 2"><g id="Capa_1-2" data-name="Capa 1"><path class="cls-1" d="M295.42,18.08c3.2-6.56,8.82-9,14.39-11.69A60.92,60.92,0,0,1,352,1.9c9.62,2.39,19.15,5.15,28.78,7.49a68,68,0,0,0,12.5,1.92c9.91.51,19.83.64,29.75.94,2.75.08,5.5.24,8.84.39,1.12-1.15,2.66-4,5.13-2.14,1.66,1.23,2.37,3.75,4,6.54,4,.65,5.38,4.46,6.24,8.83,3.59,18.18,7.33,36.34,10.87,54.53,6.1,31.38,12.06,62.79,18.13,94.18,3.29,17,6.6,34.1,10.07,51.13,2.53,12.42,5.32,24.8,8,37.2.21,1,.58,1.94.9,3l15.47,1.3c-.1.72-.26,1.94-.44,3.22-2.58,1.6-5.19,2.37-8.29,1.34a11.73,11.73,0,0,0-4.77-.14c-5.34.57-10.64,1.41-16,1.88s-10.48.78-15.72.85c-7.15.09-14.25-.08-21.41.76-7.51.89-15.16.76-22.74.81-23.51.14-47,.14-70.53.22-7.8,0-15.61.07-23.4.25-8,.19-16.06.59-24.09.82s-15.77.29-23.65.58c-18.68.68-37.35,1.66-56,2.13-17.37.43-34.75.49-52.13.48q-49.95,0-99.9-.36c-5.83,0-11.66-.73-17.49-.77-7,0-14,.16-20.94.49-9.19.43-18.37,1.09-27.55,1.65a11.4,11.4,0,0,1-1.75.09A4,4,0,0,1,0,278a4.07,4.07,0,0,1,3.47-4.36,20.58,20.58,0,0,1,3,0l24.78-.52c-1-1.39-1.55-2.16-2.15-2.84-4-4.5-7.42-9.29-8.95-15.33-3.16-12.42-.32-23.77,6-34.39,2.88-4.85,6.66-9.17,10.28-14.05-1.28-.07-2.66-.1-4-.21a95.13,95.13,0,0,1-10.43-1c-4.67-.92-5.19-2.07-4-6.83a21.23,21.23,0,0,1-8.9-9.76c-2.83-6.16-3.64-12.32-1.28-18.68,1.82-4.91,4-9.68,6-14.55,1.66-4.15,5.35-6.42,8.52-9.1,1.18-1,3.26-.95,4.61-1.3.12-2-.28-4.29.48-6.07,1-2.38,3.62-3.32,6.11-3.77,3.14-.57,6.31-.93,9.73-1.41.93-5.38.52-10.6.25-15.82a37.9,37.9,0,0,1-.37-4.36c.47-8-2.56-14.38-8.28-19.8-1.11-1-1.47-2.89-2.39-4.8-9.3-4-10.33-6.27-6.49-15,5-8.38,20.08-7.32,81.14-7.32,9.64-.19,19.28-.09,28.92-.13h4.68c-.95-6.63-1.82-12.79-2.73-18.95-.86-5.78-1.67-11.56-2.69-17.31a32.82,32.82,0,0,0-2-6.19c-1.87-4.76.25-7.85,5.37-7.53a77.16,77.16,0,0,1,10,1,13.5,13.5,0,0,1,5.39,2.66,4,4,0,0,1,1.07,3.39c-.16.84-1.48,1.78-2.47,2.05a33.39,33.39,0,0,1-5.45.63c1.16,4.71,2.15,9.08,3.32,13.4,6.84,25.37,12.57,51,17.74,76.77q6.22,31.11,13.06,62.12c1.84,8.4,4.51,16.62,6.47,25a409.21,409.21,0,0,1,8.65,50c.13,1.16.36,2.31.59,3.45.87,4.36,1,4.39,5.5,4.5,1.58,0,3.16.3,4.89.47-.41,3.56-5.35,3.16-5.58,6.47,6.47-.59,12.77-1.29,19.09-1.7,4.21-.28,8.45-.19,12.67-.2,13.94-.06,27.56-2.62,41.24-4.89,15.91-2.63,32-3,48.05-2.39a12.91,12.91,0,0,0,3.69-.32c-7.58-3.4-15.46-4.93-23.7-3.69-14.86,2.22-29.68,4.72-44.56,6.77-4.44.62-9,.16-13.54.17-5.84,0-11.68,0-17.52,0-3.15,0-6.26-.38-8.77-2.23-1.68-1.23-3.06-1-5.17,0a68.9,68.9,0,0,1-2-6.87c-1.29-7.33-2.22-14.73-3.66-22-1.87-9.44-4.14-18.81-6.16-28.22-3.21-15-6.32-30-9.56-45-3.15-14.55-6.49-29.05-9.59-43.61S176.49,85.44,173.5,71c-2.55-12.28-5.17-24.55-7.71-36.83a15.55,15.55,0,0,1,0-3c2.87.33,3.37,2.39,3.84,4.07,1.24,4.35,2.23,8.76,3.27,13.16,2.55,10.79,5.33,21.54,7.56,32.4,6,29,13.57,57.68,18.43,86.94,1.75,10.5,4.15,20.9,6.37,31.31.92,4.28,2.13,8.5,3.27,12.72a243.71,243.71,0,0,1,7.42,43.08c0,.26.24.5.52,1,3.68.32,7.54.86,11.4.93,6.42.12,12.85-.23,19.27-.09,8.09.18,16-1,23.89-2.53,10.89-2.08,21.77-4.32,32.75-5.81a44.9,44.9,0,0,1,14.74.79c5,1,9.69,3.15,14.46,5,2,.77,4,1.87,4.58,4.61l-2.44.81-2.69.93c3.88,1.74,4.62,7.81,10.59,5.34.08-3.33,2.71-4.56,5.47-5.75a82.06,82.06,0,0,1,37.16-6.48c13,.6,26,.5,39,.67,4.66.06,9.33,0,13.4,0a25.36,25.36,0,0,0-2.92-.75c-5.9-1-11.78-2.22-17.72-2.82-18.38-1.84-36.76-1.72-54.94,1.84-4.93,1-9.69,3.15-14.31,5.25a15,15,0,0,1-9.87,1.18c-.47-3.55-.9-7-1.41-10.45-2.5-17-4.72-34.12-7.61-51.1-2.76-16.25-6.45-32.34-9.31-48.58-2.62-15-4.69-30-7-45q-2-13.2-4-26.41c-.6-4-.69-8.21-1.72-12.13-3.28-12.55-6.86-25-10.45-37.5a6.6,6.6,0,0,0-2.32-2.95c-2.68-2.14-5.55-4.05-8.25-6.17C280.45,14.15,274,11,266.57,11.3c-8.45.3-16.91,1-25.31,2-19.29,2.15-38.55,4.49-57.81,6.87-3.75.47-7.43,1.55-11.17,2.16-3.16.5-6.36.83-9.55,1a7.89,7.89,0,0,1-3.82-.7,3.8,3.8,0,0,1-2-2.44,3.32,3.32,0,0,1,1.77-2.56,74.15,74.15,0,0,1,7.58-2c15.2-3.9,30.93-4.28,46.28-7.06,16.28-3,32.71-4.2,49.15-5.5,8.57-.68,16.64.93,23.76,5.84,2.83,1.95,5.15,4.65,7.69,7C293.7,16.45,294.28,17,295.42,18.08ZM480.91,250.55c-.17-.9-.31-1.75-.48-2.59q-14.76-71.37-29.51-142.75c-5.58-27.16-11-54.35-16.52-81.51-.52-2.53-1.29-5-1.92-7.45-3.76.62-7.05,1.15-10.34,1.71a138.13,138.13,0,0,1-66.58-5.13c-17.11-5.61-33.05-3.55-48.74,4.11-2.42,1.18-4.5,3.06-6.6,4.53.51,2.15.95,3.83,1.32,5.53,1.95,8.84,3.69,17.72,5.85,26.49C310,64,313.32,74.28,315.56,84.82c3.13,14.69,5.56,29.53,8.26,44.32,2.76,15.07,5.69,30.11,8.19,45.23,3.43,20.72,6.52,41.5,9.78,62.26.81,5.16,1.69,10.31,2.63,16,8.59-5,17.54-6.71,26.71-8,13.4-1.83,26.84-1.51,40.21-.75,11.76.67,23.41,3.13,35.15,4.38,11.16,1.18,22.38,1.83,33.58,2.7C480.18,251,480.31,250.9,480.91,250.55ZM159.23,154.93c-1.32-.08-2.32-.21-3.33-.19-5.25.09-10.51.35-15.76.31q-32-.2-63.95-.57c-10.94-.15-21.89-.69-32.83-.82-5.25-.07-10.5.36-15.75.63-3.13.15-5.58,1.32-6.58,4.63-1.69,5.58-3.64,11.08-5.11,16.71a11.64,11.64,0,0,0,.4,6c1.17,3.91,2.89,7.64,4.13,11.53,1.13,3.53,3.63,5,7,5.55s6.91,1.14,10.36,1.72a4.06,4.06,0,0,0,3.57-.88A17,17,0,0,1,64.82,202c.17.2.51.25.22.11,3.43-.25,6.33-.57,9.23-.66q45.54-1.36,91.08-2.68a30.87,30.87,0,0,0,3.55-.54C165.66,183.71,162.49,169.53,159.23,154.93ZM175.94,231c-5.08,0-9.73-.1-14.38,0-23.79.65-47.57,1.37-71.36,2-6.86.19-13.71.3-20.57.44-2.86.06-4.38-1.14-4.1-3.26a3,3,0,0,1,3-2.75,73.83,73.83,0,0,1,8.28-.29c9.78.28,19.56,1.05,29.33.94,21.61-.26,43.21-.94,64.82-1.46,1.25,0,2.49-.16,4.14-.28-.69-3.09-1.29-5.75-2-8.89-2,0-3.9,0-5.77,0q-44-.27-88.06-.6a45.63,45.63,0,0,1-11.29-1,32.61,32.61,0,0,0-12.16-.75c-1.17,3.13-2.4,6.45-3.63,9.77,2.41-1.84,4-4.11,5.91-6.05,1.72-1.74,2.44-1.5,4.65.85a29.13,29.13,0,0,0-6.3,13.18c-1,5.94-1.72,11.89-.08,17.81,1,3.59,2.95,6.33,7,7a19.8,19.8,0,0,1,3.22,1.42c-2.22.93-3.57,1.89-5,2-3,.27-5.33-1.32-7.27-3.43a16.88,16.88,0,0,1-4.38-9.4c-.52-4.19-.55-8.45-.75-12,.12-.47,0-.2,0,.09-1,7-3.77,14.22,2.62,20.36,1.36,1.31,1.2,3.25,0,4.84a3.74,3.74,0,0,1-4.36,1.18,18.79,18.79,0,0,1-3.09-1.58c-.49,1.8-1,3.54-1.45,5.27-3.41-.14-4.49-2.4-5-4.6-1.47-6.09-2.57-12.27-3.91-18.39-1.9-8.73.22-16.81,3.92-24.62a18.59,18.59,0,0,1,10.27-9.67c2.6-1,4.83-1.15,7.3.85,2.16,1.75,5,2.67,7.57,4,2.09-4.66,2.75-4.94,7.22-4.52,4.2.39,8.43.71,12.65.77,7.88.12,15.77.1,23.66,0q26.28-.34,52.56-.83c3.65-.06,7.29-.2,10.94-.35a5.41,5.41,0,0,0,1.45-.65c-.32-1.19-.64-2.36-1-3.71L63.05,207.46c-5.08-4.91-8.86-5.81-14.78-3l5.19,2.19c-1.58.82-3.25,1.29-4.55.8-3.76-1.42-6.27.42-8.4,2.93-6.12,7.18-11.17,15-13.11,24.41-1,4.68-1.71,9.44-.79,14.34,1.56,8.23,6.34,14.15,12.44,19.51,3.85,3.39,8,3.93,12.58,3.05,1.27-.24,2.45-1,3.72-1.25a9.52,9.52,0,0,1,3.28,0c1.51.26,3,1,4.45,1.06,5.26.17,10.53,0,15.77.21S89.59,273,95,273.05c20.74.08,41.48-.1,62.22-.19,7.6,0,15.19-.07,22.79-.17,1.13,0,2.72.55,3.19-2-2.55,0-4.93,0-7.3-.07-12.27-.28-24.53-.71-36.79-.84-28.33-.3-56.66-.45-85-.66a5.51,5.51,0,0,1-2.16-.09c-.85-.41-2-1.08-2.16-1.8-.16-1,.25-2.6,1-3a11.37,11.37,0,0,1,4.91-1.37c5.25-.25,10.51-.3,15.77-.32q52.58-.17,105.16-.29h5.39c-.95-4.89-1.76-9.11-2.63-13.58-1.58,0-2.86,0-4.14,0-7.3.1-14.6.3-21.9.29-15.77,0-31.54-.07-47.31-.24-6.71-.07-13.41-.43-20.12-.73-1.37-.06-3,0-3.52-1.81,2-1.67,2-1.6,4.12-1.49,4.52.23,9,.49,13.56.55,5.4.07,10.8-.11,16.21-.09,18,.06,35.92.19,53.88.23,2.72,0,5.44-.26,8.55-.43C177.71,240.13,176.89,235.87,175.94,231ZM149.56,110.94H110.75c-12.55,0-25.11.25-37.66,0-5.52-.11-11-1.08-16.53-1.81-1.46-.2-3.26-.33-3.88-3,1.62-.49,3.17-1.28,4.77-1.37,3.64-.19,7.29-.1,10.94,0,7.15.17,14.3.52,21.45.58,18,.15,35.91.18,53.87.26h4.82c-.58-2.85-1.05-5.17-1.57-7.68-7.61-.16-14.75-.5-21.89-.42-15.31.17-30.63.56-45.94.87-5.83.12-11.65.31-17.48.39A44.69,44.69,0,0,1,51.94,98a14.84,14.84,0,0,1,3.72-.94c.78-.17,1.92-.42,2.19-1,1.08-2.24,3.09-2,4.91-2q19.5-.24,39-.3c5.11,0,10.21.34,15.31.37,8.61,0,17.22,0,25.83-.07,1,0,1.89-.15,3.22-.27L144.4,87c-5.3.32-10.24.67-15.17.9-5.11.23-10.22.34-15.32.51S104,88.69,99,89s-10.1.86-15.16,1.06-9.93.15-14.89.08-10.24-.65-15.31-.32c-4.79.32-9.62-1.49-14.54,0a5.39,5.39,0,0,0,.39.81,3.45,3.45,0,0,0,.67.54c4.2,2.46,6.29,5.92,5.38,10.94a7.26,7.26,0,0,0,.53,2.86c.35,1.4.89,2.76,1.12,4.18.42,2.59.68,5.21,1,7.81A2.65,2.65,0,0,0,51,119.57c6.69.41,13.37,1.14,20.06,1.28,7.88.17,15.77-.16,23.65-.26l53.41-.67c1,0,2-.2,3.34-.35C150.83,116.79,150.28,114.25,149.56,110.94Zm5.69,24.24-2.64-10.54c-1-.1-1.57-.21-2.14-.2-16,.21-32.07.6-48.1.63-15.16,0-30.31-.34-45.46-.46-2.72,0-5.45.3-8.28.48-.44,3.14-.81,5.82-1.22,8.72a19.94,19.94,0,0,0,3.4.65q50.68.54,101.39,1A30.48,30.48,0,0,0,155.25,135.18ZM142.3,74.4c-1.51-.11-2.52-.24-3.53-.24C109,74,79.28,73.73,49.53,73.82c-5,0-10,1.5-15,2.53-2,.42-3.69,1.61-3.54,4.51,1.32.24,2.57.56,3.83.68A180.57,180.57,0,0,0,56.14,82.7c12.24-.23,24.49.33,36.72,0,15.15-.43,30.29-1.42,45.43-2.2,1.52-.08,3-.35,4.79-.56C142.79,77.86,142.57,76.31,142.3,74.4ZM32.66,145.29c41.81.85,83.3,1.1,125.24,1.09-.53-2.34-.9-4-1.4-6.24-2.42,0-4.73,0-7,0q-24.7,0-49.43-.06c-6.85,0-13.72.11-20.55-.27-14.15-.79-28.24-.88-42.33.93C34.39,141.09,32.83,142,32.66,145.29ZM182.87,201l-.66.08c.33,2.46.67,4.91,1,7.36l.82-.11C183.64,205.89,183.26,203.44,182.87,201Z"/><path class="cls-1" d="M229.61,117c4.34-.35,8.69-.67,13-1.08,3.19-.29,6.37-.65,9.53-1.1,2.58-.37,5.13-1,7.7-1.41,5.72-1,11.43-2.21,17.18-3,3-.43,5.73-1,8.13-2.85,1.95-1.49,3.06-.69,5.15.55,4.67,2.77,5.57,7.17,6.78,11.55A549.51,549.51,0,0,1,311,186.86C312.66,198,314.9,209,316.86,220c.56,3.17,1,6.28-.26,9.47-.75,1.84-1.81,2.49-3.65,2.23-2.31-.33-4.68-.42-6.93-1-10.81-2.65-21.44-1.46-32,1.42-4.06,1.12-8.1,2.38-12.05,3.84-7.4,2.75-14.83,2.66-22.35.69-1.4-.37-2.81-.73-4.24-1-3.18-.64-5-3.54-4.7-6.87.16-2.11.18-4.61-.78-6.36-4-7.45-5.57-15.67-7.24-23.75-3.13-15.14-5.58-30.41-8.53-45.59-1.47-7.58-3.42-15.07-5.12-22.6a51.91,51.91,0,0,1-1.19-6c-.31-2.87,2.85-6.94,5.59-7.12,5.38-.36,10.77-.52,16.16-.76Zm60.07-4.82c-5.06,3.29-9.92,4.26-15.12,4.53a48.8,48.8,0,0,0-11.11,2.13c-11.29,3.32-22.87,4.57-34.54,5-5.32.18-10.66-.46-16-.73,9.19,34.5,15.62,69.74,21.72,105,3,.5,5.7.9,8.4,1.42,6.64,1.26,13.06,1,19.12-2.45a14.26,14.26,0,0,1,3.72-1.23c4.83-1.13,9.63-2.43,14.52-3.23,6-1,12.14-1.75,18.26-.23,3.78.94,7.6,1.68,11.88,2.6C304.7,187.21,299.23,149.72,289.68,112.19Z"/><path class="cls-1" d="M206.7,256.15c-.45.6-.92,1.83-1.78,2.24-1.51.72-2.5-.52-3-1.79-1.44-3.8-3.24-7.57-4-11.52-3-15.47-5.52-31-8.4-46.51-3.06-16.5-6.66-32.91-9.41-49.45-3.4-20.46-7.55-40.75-12.31-60.91-4.09-17.32-8.5-34.56-12.85-51.81-.5-2-1.7-3.73-2.23-5.68-.24-.9.34-2,.55-3,1,.29,2.43.25,3,.93a10.64,10.64,0,0,1,1.76,3.93q4.2,15,8.27,30c3,11,6.23,21.89,8.77,33,3.2,13.92,5.82,28,8.66,42,2.78,13.73,5.61,27.45,8.27,41.2,2.6,13.46,5,27,7.51,40.44q2.86,15.27,5.82,30.52C205.74,251.61,206.18,253.6,206.7,256.15Z"/><path class="cls-1" d="M202.48,99.19a9.68,9.68,0,0,1,2.24-1c8.78-1.37,17.56-2.75,26.36-4,12.75-1.81,25-5.56,37.42-8.9,6-1.6,12-2.58,18.16-1.31,2.36.49,4.55,1.4,5.46,3.85.37,1,.19,2.15.31,3.93-7.68-4.3-14.76-2.34-21.66,0-16.55,5.52-33.61,8.6-50.81,10.94-4.42.6-9,.2-13.49,0C204.54,102.63,202.75,101.83,202.48,99.19Z"/><path class="cls-1" d="M278.82,46c-5.05-2.91-10.43-1.87-15.67-.93-15.21,2.73-30.33,6-45.58,8.47-9.67,1.58-19.48,1-29.22-.12a5.37,5.37,0,0,1-4.47-2.35,33.32,33.32,0,0,1,4.06-.67A224.14,224.14,0,0,0,237.56,43a159.4,159.4,0,0,1,22.76-4.2c4.4-.52,9,.21,13.46.76a11.94,11.94,0,0,1,5.09,2.32C280.34,42.92,280.67,44.48,278.82,46Z"/><path class="cls-1" d="M287.38,75.92c-5.83-3.6-11.14-2-16.17-1-12.73,2.57-25.36,5.59-38,8.53a123.28,123.28,0,0,1-29.93,3.46,11.38,11.38,0,0,1-3.47-.33,10.4,10.4,0,0,1-2.55-1.82c.82-.71,1.56-1.85,2.49-2,2.42-.5,4.93-.54,7.39-.83A236.06,236.06,0,0,0,241.41,75c10.25-2.8,20.83-4.45,31.33-6.21,3.52-.58,7.25-.08,10.86.2a4.53,4.53,0,0,1,4.14,3.42C288,73.24,287.58,74.22,287.38,75.92Z"/><path class="cls-1" d="M283.82,56.81c-6.64.72-13,1-19.27,2.21-7,1.29-13.92,3.17-20.8,5.07A145.65,145.65,0,0,1,196.11,69a51.67,51.67,0,0,1-5.33-.85c1-2.4,2.89-2.22,4.51-2.45,13-1.81,26-3.27,38.92-5.53,8.88-1.56,17.55-4.29,26.34-6.35a46.5,46.5,0,0,1,18.69-.34C282.16,54,282.5,54.31,283.82,56.81Z"/><path class="cls-1" d="M325.37,40.78,324,37.15a51.47,51.47,0,0,1,23.55-6.43c10-.43,19.75,1.46,29.57,2.8,6.65.9,13.29,1.81,19.94,2.69a51,51,0,0,0,20.39-1.3,6.35,6.35,0,0,1,2.11-.5c1,.1,2.52.21,3,.88.92,1.38-.27,2.47-1.45,3.12a24.85,24.85,0,0,1-4,1.72c-8,2.74-16.32,3.12-24.65,2.16-10.86-1.25-21.68-2.94-32.56-4a94.41,94.41,0,0,0-16.56-.14C337.41,38.59,331.55,39.83,325.37,40.78Z"/><path class="cls-1" d="M342.85,114.16c-.5-2.08-.86-3.59-1.24-5.19,4.08-2.89,8.6-3.33,13.05-3.87,9.31-1.13,18.62-.65,27.95.22,8.12.76,16.29,1.1,24.44,1.46A41.32,41.32,0,0,0,428.58,102a27.91,27.91,0,0,1,2.81-1.2,2.52,2.52,0,0,1,.87,0c1.51,4,1.48,4.09-1.95,6.14a41.07,41.07,0,0,1-21.66,6c-9.77-.09-19.55-.35-29.3-1C367.24,111.12,355.18,110.16,342.85,114.16Z"/><path class="cls-1" d="M359.59,196.1c-.26-1.91-.44-3.29-.71-5.24,4-.94,7.76-2.05,11.59-2.68,9.17-1.51,18.32-.2,27.47.51,7.26.56,14.54,1.07,21.81,1.41A61.51,61.51,0,0,0,446.59,185c1.06-.45,2.16-.82,3.6-1.36.43,1.68.81,3.18,1.27,5a63.91,63.91,0,0,1-19,6.72c-8.54,1.66-17.14,1.16-25.73.69-6-.33-11.9-1.09-17.86-1.47C379.28,193.91,369.67,193.73,359.59,196.1Z"/><path class="cls-1" d="M430.54,83.93c1,4.38,1,4.74-2,6.1a45.48,45.48,0,0,1-18.6,4.5c-12.11.08-24.23-.09-36.35-.41-10.43-.27-20.72,0-30.57,4a26.84,26.84,0,0,1-3.5.9c-.41-1.67-.75-3-1.12-4.57a32.11,32.11,0,0,1,18.47-6c13.13-.17,26.27-.29,39.4,0,10.45.23,20.7-.41,30.65-3.87A24.75,24.75,0,0,1,430.54,83.93Z"/><path class="cls-1" d="M335.38,79.94c-.31-1.33-.62-2.68-.95-4.11a20.55,20.55,0,0,1,9.15-4.38,115.41,115.41,0,0,1,32.67-1c6.1.62,12.16,1.49,18.26,2a71.79,71.79,0,0,0,25.61-2c1.77-.49,3.63-1.25,5.4.41.07,2.06-1.49,2.76-2.91,3.33C416.35,76.73,410,79,403.14,78.77c-9.17-.29-18.33-1.11-27.51-1.33s-18.36-.18-27.52.18C344.08,77.78,340.1,79,335.38,79.94Z"/><path class="cls-1" d="M454.18,205c.26,2,.43,3.43.64,5a38.49,38.49,0,0,1-16,5.56c-10.17,1.46-20.38,1-30.58.46-13.85-.69-27.7-1.07-41.54.32-1,.1-2,0-3.58,0-.2-1.43-.4-2.92-.63-4.61a52.55,52.55,0,0,1,19.61-2.86c11.66.24,23.32.8,35,1.16,4.82.15,9.63.14,14.45.2A50.46,50.46,0,0,0,454.18,205Z"/><path class="cls-1" d="M456.82,228.21l.75,4.07c-2.33.26-4.31.61-6.31.7-14,.58-28-.67-41.91-2-14.39-1.38-28.8-1.79-43.75.08-.34-1.33-.71-2.76-1.2-4.69,3.82-.78,7.19-1.73,10.61-2.11a160.13,160.13,0,0,1,36.68.33c14.35,1.69,28.7,3.09,43.15,3.35A17.13,17.13,0,0,1,456.82,228.21Z"/><path class="cls-1" d="M332.54,60.21A35.46,35.46,0,0,1,336.73,57a37.92,37.92,0,0,1,17.41-5.28,138.62,138.62,0,0,1,14.83.46c11.63.85,23.23,2.16,34.87,2.65,4.7.2,9.47-1.23,14.2-2,.86-.13,1.69-.71,2.51-.67a2.71,2.71,0,0,1,2.08,1,2.43,2.43,0,0,1-.58,2.26,9.92,9.92,0,0,1-3.77,2.1c-4.66,1.08-9.36,2.52-14.09,2.73a241.88,241.88,0,0,1-39.72-1.22,60.42,60.42,0,0,0-27.21,2.46C335.74,62,334.19,62.68,332.54,60.21Z"/><path class="cls-1" d="M441.42,146.89c.48,1.53.9,2.87,1.38,4.42-1.13.72-2,1.4-3,1.92-10.58,5.57-22.06,7.18-33.81,7.61a166.83,166.83,0,0,1-29.21-1.56,71,71,0,0,0-20,0,24.22,24.22,0,0,1-3.33,0c-.41-1.45-.83-2.93-1.36-4.84a47.78,47.78,0,0,1,4.83-1.17,71.76,71.76,0,0,1,18.29-.29,219.43,219.43,0,0,0,39.7,1.46,61.7,61.7,0,0,0,23.08-6.09C439,147.84,440.06,147.45,441.42,146.89Z"/><path class="cls-1" d="M356.66,177.3c-.34-1.83-.64-3.47-1-5.28,8.05-1.49,15.77-1.52,23.48-1.32,8.75.22,17.49,1,26.23,1,7.27,0,14.56-.46,21.81-1.06,5.14-.43,9.89-2.43,14.44-4.82l4.08-2.14c.45,1.59.84,3,1.33,4.66A47.75,47.75,0,0,1,427.71,176c-10.41,1.78-20.89,1.67-31.41,1.41-11.95-.28-23.91-.12-35.86-.15C359.29,177.29,358.14,177.3,356.66,177.3Z"/><path class="cls-1" d="M435.09,116.63c.18,1.16.36,2.39.57,3.74-4.25,3-9,4.43-13.8,5.53a70.64,70.64,0,0,1-23,1.48,242.2,242.2,0,0,0-26.62-1.69c-6.93.07-13.85,1.64-20.76,2.61-1.57.22-3.1.73-5,1.2-.47-1.91-.91-3.67-1.48-6,3.87-.9,7.36-1.87,10.89-2.52a98.31,98.31,0,0,1,27-.79c5.08.48,10.18.79,15.25,1.41,12.42,1.54,24.44.45,35.84-5.1C434.17,116.44,434.5,116.58,435.09,116.63Z"/><path class="cls-1" d="M350,144.79c-.32-1.39-.68-2.89-1.06-4.53,3.63-1.71,7.29-1.72,10.87-1.55,9.33.43,18.69.73,28,1.77,17.16,1.91,33.45-.44,48.78-8.58.22-.12.55,0,1.16,0,.31,1.41.64,2.91,1,4.63a26.57,26.57,0,0,1-3,1.79c-11.67,5-23.76,8-36.56,7.47-12-.48-23.92-1-35.88-1.35C359,144.3,354.82,144.64,350,144.79Z"/><path class="cls-1" d="M75.46,183.81a89.54,89.54,0,0,0,14.83-12.73c3.14-3.34,4.23-3.58,7.63-.6,2.84,2.49,5.32,5.38,7.93,8.12,1.6,1.68,3.13,3.42,5,5.48,3.79-4.58,7.38-8.92,11-13.25a25.29,25.29,0,0,1,3.16-3.59c.71-.58,1.91-.56,3.64-1-.64,1.83-.78,2.86-1.31,3.61-4.24,6.09-8.5,12.17-12.87,18.16-2.73,3.75-5.47,3.61-8.46-.07-3.75-4.61-7.61-9.13-11.56-13.86l-9.75,7.77c-2,1.63-4,3.33-6.17,4.86-3.75,2.72-4.58,2.74-7.7-.63-2.67-2.86-5.1-6-7.49-9.07-1.86-2.41-3.43-5-5.26-7.49-.88-1.19-1.45-2.29-.24-3.45a2.61,2.61,0,0,1,3.91.12,17.92,17.92,0,0,1,2.39,3.07c1.94,2.9,3.66,6,5.76,8.74A69.14,69.14,0,0,0,75.46,183.81Z"/><path class="cls-1" d="M142,167.37c2.95-.08,4,.9,4.11,3,.32,4.63.74,9.24,1.1,13.86a9.27,9.27,0,0,1,0,2.17c-.28,1.54-1.06,2.83-2.8,2.78a2.66,2.66,0,0,1-2.63-2.9c-.07-2.75-.06-5.51,0-8.26C141.85,174.6,142,171.16,142,167.37Z"/></g></g></svg>