<svg xmlns="http://www.w3.org/2000/svg" id="Capa_2" data-name="Capa 2" viewBox="0 0 93.25 93.53"><defs><style>      .cls-1 {        fill: #a98e6b;        stroke-width: 0px;      }    </style></defs><g id="Contenido"><path class="cls-1" d="M45.45,93.51c26.05.57,47.3-19.56,47.78-45.44.24-12.95-3.96-24.4-12.94-33.81C71.58,5.13,60.73.48,48.12.03,22.9-.86.48,19.62,0,45.86c-.46,25.74,19.8,47.09,45.45,47.65ZM57.29,5.82c16.36,4.76,26.93,15.22,31.15,31.82.73,2.88.84,5.92,1.23,8.88-.32,7.18-1.99,13.92-5.45,20.21-.9,1.63-2.06,2.95-3.58,4.02-5.77,4.08-12.23,6.11-19.25,6.38-18.47.72-31.75-10.61-36.71-23.9-6.65-17.8,1.59-36.39,14.99-44.6,5.5-3.37,11.3-4.64,17.61-2.81ZM5.03,43.27C6.77,22.87,22.66,8.87,35.02,6.49c-19.85,15.02-20.24,38.25-12.78,52.5,4.85,9.27,12.06,15.87,21.71,19.83,9.63,3.95,19.35,3.71,29.47.26-8.97,8.56-26.68,13.2-42.68,6.41C14.13,78.43,3.51,61.01,5.03,43.27Z"></path></g></svg>