<svg xmlns="http://www.w3.org/2000/svg" viewBox="0 0 330.38 404.36"><defs><style>.cls-1{fill:#a98e6b;}</style></defs><g id="Capa_2" data-name="Capa 2"><g id="Capa_1-2" data-name="Capa 1"><path class="cls-1" d="M165.19,0C74.1,0,0,90.69,0,202.18S74.1,404.36,165.19,404.36s165.19-90.7,165.19-202.18S256.28,0,165.19,0Zm0,397.76C77.75,397.76,6.6,310,6.6,202.18S77.75,6.6,165.19,6.6,323.78,94.34,323.78,202.18,252.63,397.76,165.19,397.76Z"/><path class="cls-1" d="M165.19,16.74c-81.32,0-147.47,83.18-147.47,185.44S83.87,387.62,165.19,387.62s147.47-83.19,147.47-185.44S246.51,16.74,165.19,16.74Zm0,5.87c78.08,0,141.6,80.55,141.6,179.57a217.63,217.63,0,0,1-16.51,84c0-.22,0-.43,0-.65-1.5-23.17-25.17-29.24-25.37-29.32-1.57-3.46-8.95-17.25-26.47-15.06-7.64-4-23.11-2.59-29.87,9.45a4,4,0,0,1-2.16,1.91c-1.9.42-4.3-2.28-4.63-4.29-1.55-9.52.95-20.71,1.37-22.46a46.4,46.4,0,0,0,10,1.2c8.57,0,11.38-4.34,11.43-10.43a49.85,49.85,0,0,0-.8-6.55c1.26-1.27,3.55-2.95,4.7-4.46,1.4-1.84.19-3.81-.41-5.63,5.31-2.24,5.32-4.28,4.11-8.16a28,28,0,0,1-.68-4.62c2.51-1.71,4.55-3.22,6.7-4.54,2.34-1.44,2.55-3.37,2-5.82-2.49-10.4-6.07-26.43-5.32-31.15,25.46-20.83,20.28-58.77-2.5-60.43-10.61-6.29-21.75-1.22-27.67,2.35.34-12,4-29.16,8.25-37.77.67-1.35-1.41-3.92-3.95-2.77-12.07,5.49-26.51,22.39-31.44,36.7-7.13-16.83-32-23.49-52-13.16-18,9.29-30.14,32.23-19.91,52.08-13.3-3.27-34.8-3.76-44.95,1.72-2.64,1.42-1.9,4.54-.42,4.81,10.28,1.85,28,12.26,37.76,20.18-28.62,16.47-30.12,48.8-26.83,58A77.86,77.86,0,0,0,65.45,214c-7.69,11.23-9.3,23.31-4.53,36.12,1,2.75,2.33,5.41,3.53,8.16-8.5,6.75-11.86,15.87-13,26.2-.76,6.76,1.62,13.12,2,19.72,0,.65-1,2.35-2.29,4.2-17.29-29.78-27.54-66.51-27.54-106.24C23.59,103.16,87.11,22.61,165.19,22.61Zm95.13,312.46c-4.16-11.95-7.49-20.95-9.41-26.7a6.57,6.57,0,0,1,.44-5.28,25.47,25.47,0,0,0,2.06-6.92,10.6,10.6,0,0,1,1.6-4c6.21-9.7,10.71-21.05,10.32-29.38,1.41.58,15.86,6.56,17.43,22.58.61,6.19-.12,12.3-.91,18.4A175.39,175.39,0,0,1,260.32,335.07Zm-20.91-20,6-3.69c.21.79,5.91,17.95,9.3,29.8a148.17,148.17,0,0,1-15.42,13.93C240.9,341.29,241.53,325.22,239.41,315.07ZM195.6,278.68c4.6,1.1,10.11.34,14.6,0-5.55,9.38-5.91,18.36-.45,27.47-7.17,12.12-17.44,21.09-29.34,29-16.84-11.19-28.35-21-35.4-40.29,1,0,17-8,17.52-8.43a1.22,1.22,0,0,0-.2-2.2c-1.42-.54-18.57,4-19.85,3.73-2.78-5.45-6.55-17.11-4.12-23.34,12.14-18.28,11.39-36.12,26.55-64.06,11-20.24,25.22-42.84,42.06-57.28,1.72-1.47,3.57-2.79,5.35-4.18a103.85,103.85,0,0,0,14.3-14.14c.54-.61,1-1.26,1.58-1.87.12-.13.36-.16.92-.4.46,3.7,1.2,7.25,1,10.91-.16,3.36-.47,6.72-.62,10.09a81.72,81.72,0,0,0,2.38,25.16c.63,2.37,1.38,4.71,2,7.06s-.48,3.85-2.42,5c-5.38,3.22-12.23.16-12.35,2.06-.22,3.45,6.73,5,8.33,4.84a22.5,22.5,0,0,0,1,5,2.55,2.55,0,0,1-2.13,3c-8.48,1.38-13.55-.73-13.62,1.27-.17,4.88,7.81,2.34,10.7,5.37a1.2,1.2,0,0,1-.25,1.86c-.74.45-1.49.91-2.26,1.33-2.52,1.38-3.12,2.7-2.44,5.55.26,1.09.64,2.16.86,3.26,1,5.09-2.24,8.34-15.35,6.11-11.15-1.9-18.94-7.8-19.6-7-1.49,1.77,6.78,9.07,11.64,10.5,0,1.05-1.62,18.71-.77,27,1.5,14.76,6,17.59,6.89,17.27.53-.19.69-8.54.69-9.45,6.07,1.45,12,1.94,18.08,0,1.79,3,1.06,6.57,1.58,9.93-11,2.94-17.62,4.5-25.56,6.54C195.49,275.7,194.13,278.33,195.6,278.68Zm-106.9-63a71.94,71.94,0,0,0,19,29.28c3.86,3.62,8.08,6.86,12.14,10.27a9.55,9.55,0,0,1,2,2,10.77,10.77,0,0,1-1.6-.43c-14.21-6.54-21.82-9.37-26.74-13.75,1.32,7.63,20.73,18.32,22.18,19a2.41,2.41,0,0,1-3,1.91,49.52,49.52,0,0,1-16.83-5.34c-7.88-4.13-21.78-16.77-23.23-18.16-.2,1.28,1.09,5.61,2.3,7.16,7.76,9.95,17.11,17.78,29.41,21.58.17.05.31.23.62.46l-7.69,6.42c-26.67-9-40-37.42-24.61-61.77,1.66,7.17,9.43,24,15.91,23.6-2-8-8.61-19.9-10.64-35.8-1.55-12.14,1.27-23.1,9.12-32.66a92.83,92.83,0,0,1,14.12-13.7c-14.28,69,20,90.46,37.05,98.67L136,257.66c-2.89-1.7-5.65-3.22-8.31-4.9-11.87-7.52-22.22-16.67-29.91-28.55-5.55-8.6-9.47-23.82-9.86-25.4C85.82,200.46,86.16,208.42,88.7,215.71ZM86.81,289.6c-8.08,5.41-17,8.79-26.07,11.69C56,287.91,58.5,271.93,68,263.3c6.88,9.05,16.42,13.18,27.07,15.46A2.38,2.38,0,0,1,92.68,281c-8.54,1.24-24.11,3.67-25.32,4C71.8,288.45,86,289.36,86.81,289.6Zm68-88.11c-3-25.6,14.06-86.81,52.47-109.18,6.65-3.87,13.24-5.46,19.65-1,4.87,3.4,5.38,11.06.68,19.78a52.81,52.81,0,0,1-5,7.7,88.85,88.85,0,0,1-16.24,16.12c-12.16,9.2-22.77,23.51-31,36.34-5.24,8.17-13.41,21.44-14.08,22.21,2.5-10.1,6.31-22,10.56-30.66,7.36-15,30.4-48.54,37.16-55.61C187.42,119.53,159.31,163.77,154.78,201.49ZM198.72,87.61c-5.06-1.24-12.49-.13-18.43,1.53,4.63-11.51,11.28-23.25,22.57-30.79A98.33,98.33,0,0,0,198.72,87.61Zm-7.76,6a30.12,30.12,0,0,1,3.88,0c-29.59,19.46-48,69.27-44.74,123.12-4.41-10.65-11.43-46.22.92-83.25-17.74,32.93-11.39,66.16-2.81,96.06-4.06-5.32-8.23-18.61-9.17-22.33a145.88,145.88,0,0,1-3.75-32.82,121.45,121.45,0,0,1,2.35-23.43c3.1-16.11,11.18-29.62,22.67-41.23C168.77,101.15,178.93,95.49,191,93.61Zm-71.62,55.14a106.83,106.83,0,0,0-6.12,49.42c1.18,10.66,4.92,20.61,9.76,30.15,3.65,7.16,8.17,13.66,15,19.16-3.72-.16-27.17-16.07-31.56-46.47-9.73-67.38,31.42-98.07,48.67-96.67l-2.67,3a86.81,86.81,0,0,0-19.77,35.55,159.42,159.42,0,0,0-4.15,21c-1.55,11.23-.63,22.44,1.47,33.54a114.55,114.55,0,0,0,5.82,20.92c2.67,6.77,5.6,13.39,10.95,19l-3.2,7.38a4.72,4.72,0,0,1-1.19-.65c-11.76-13-18.82-28.34-22.14-45.39-1.62-8.35-1.34-16.89-.83-25.37,1-16.45,6.53-34.44,6.63-36.33A41.93,41.93,0,0,0,119.34,148.75Zm41.6-49.61c-18.23-3.06-36.19,9-47.44,24.69-9-12.51-4.78-29.7,6.32-40.16,7.7-7.26,20.52-12,30.93-10.23,9.81,1.71,18.33,5.46,24.61,17.41C169,93.46,162.62,97.07,160.94,99.14Zm-51.2,30a68.59,68.59,0,0,0-6.65,16.72A124.25,124.25,0,0,0,73.27,127.2C86.79,125.62,99.3,126.24,109.74,129.12ZM235.19,91.45c6-.45,19.65,21,1.21,47.49.43-8.25-.05-15.14-3.69-22.73C237.31,108.42,238.42,100.21,235.19,91.45Zm-7.74,163.72a10.66,10.66,0,0,0-6.69-6.68c-.38-.13-.76-.28-1.13-.44-.06,0-.08-.14-.22-.43,3.91-2,8-3.12,12.28-2a6.65,6.65,0,0,1,3.79,3.22,49.81,49.81,0,0,1,2.65,8.38,41.08,41.08,0,0,1,1.36,6.54,66.76,66.76,0,0,1,0,7.08l-10.32-2.31c0-1.19,0-2.49,0-3.78A25.63,25.63,0,0,0,227.45,255.17ZM230.1,276c10.61-.36,16.7,8.39,16.88,16.74a17,17,0,1,1-34,.45C212.91,283.74,220.51,276.33,230.1,276Zm13-28.54c8.21.07,14.23,4.82,14.63,12.07a38.59,38.59,0,0,1-6.11,23l-6-7.94A42.5,42.5,0,0,0,243.12,247.48ZM55.31,315.28c6-9.46,7.41-4.85,31.94-17.38-.18,10.66-4.44,29.65-8.51,46.35A166,166,0,0,1,55.31,315.28Zm29.23,34.37C90,333.24,93.88,310,96.47,288.34c.38-3.19,5.4-6.48,7.66-8.76a14.54,14.54,0,0,1,7.6-4.52c.07.62.15,1.11.19,1.6-1.54,18.82,12.66,87.15,29.62,94.07-1.35-6.41-23.14-58.79-23.14-97.51,0-3.19,1.1-5,4.11-6a12.1,12.1,0,0,1,4.78-.53c2.86.24,3.11.67,3.51,3.59.11.81.24,1.62.4,2.42,1.94,9.56,5.44,18.57,9.37,27.47,5.66,12.82,14.33,23.23,24.94,32.14,2.71,2.28,5.65,4.27,8.76,6.59-4.58,3.95-20.26,12.38-24.23,16.22,7.76,0,43-10.15,64-42.19l7.14,2.69C218.41,331.3,202,358,188.28,371.29c26.23-8,38.83-53,39.11-54.18h5c3.59,13.32,3.08,29,2.11,41.59-20.5,14.65-44.12,23.05-69.28,23.05C135.23,381.75,107.44,369.86,84.54,349.65Z"/><path class="cls-1" d="M214.36,158.79c0,1,1.19,3.46,3,3.44,1.67,0,3-2.2,3.21-3.59s2.93-1,2.93-4c0-1.3-1.91-2.49-3.07-2.39-9,0-15.88,5.06-14.91,8C206.07,161.87,211.94,158.87,214.36,158.79Z"/><path class="cls-1" d="M175.17,229.06c-.73-.05-4.42,9.94-5.63,13.53-2,5.84-6.14,15.69-6.38,17.61,1.25-.77,8.51-9.69,10.59-14.9a34.9,34.9,0,0,0,2.47-14C176.19,230.35,176.3,229.13,175.17,229.06Z"/><path class="cls-1" d="M208.54,147.39c4.06-1.28,8.79-1.2,13-1.15,1,0,2,0,3.07-.06a2.35,2.35,0,0,0,2.43-1.93,2.23,2.23,0,0,0-1.63-2.62c-4.39-1.62-19.71,1.7-18.93,5.14C207,148,207.57,147.7,208.54,147.39Z"/></g></g></svg>