<svg xmlns="http://www.w3.org/2000/svg" viewBox="0 0 290.94 326.89"><defs><style>.cls-1{fill:#a98e6b;}</style></defs><g id="Capa_2" data-name="Capa 2"><g id="Capa_1-2" data-name="Capa 1"><path class="cls-1" d="M239.65,211.32c2.23,2.24,10.41,6.44,18.67,5.66-2,4.77-3.82,9.71-5.58,14.2-.63,1.59.55,2.78,1.95,2a38.39,38.39,0,0,0,19.05-24.67c2.21-9.5-1.28-15.09-6.25-8.82a54.61,54.61,0,0,0-5.9,9.91,170.29,170.29,0,0,1-13.21-17.05c.68,0,22.83,5,24.4-3.77.42-2.3-1-3.56-2.63-4.83-19.15-15.22-30-31.43-32.61-34.58C229,139.17,220.88,143,210.2,141c.24-1.8,2.87-19.31-3.28-29.62-2.21-3.68-5-6.76-9.6-6.76-5.06,0-6.11,17-12.38,28.34-12.44-17.79-40.73-59.79-81.83-83.59-1.2-.69-2.61-1.35-4.15-.48-.42,2.54,1.5,3.54,2.87,4.79,9.63,8.84,38.23,32.11,74.41,83.24a51.48,51.48,0,0,1,2.9,5.33c-5.08,1.07-9.6,2.11-14.16,3a14.84,14.84,0,0,0-11.9,10.26c-2.56,7.17-12.16,40-19.48,52.35-8.43,14.24-26.82,19.12-37,22.19-27.76,8.36-60.34,18.07-85.84,31.49-9.16,4.82-12.4,9.8-10,9.94,1.4.09,6.81-1.13,12.59-3.83,22.12-10.35,76.42-27.72,92.15-31.86,10.42-2.74,26.27-8.9,35.5-24.44,8.59-14.47,17.76-52.78,25.59-56.41,2.68-1.25,7.76-2,11.07-3.16-4.37,12.66-14.71,24.85-12.44,26.84,1,.84,4.25-1.85,5-2.83s9.47-13.27,11.56-17.24c5.68-17.9,13.1-32.08,15.85-44.2a2.09,2.09,0,0,1,3.87-.41c2,3.75,2.28,10.21,2.23,14.07-.09,8.36-2.46,16.22-5.6,23.8-3,7.21-3.76,16.94-3.33,24.62,2.25,40.27-14.21,55.33-29.64,62.16-4.45,1.72-12.72,4.34-16.85,6.67-13.08,7.38-64.44,40.67-92.7,63.28C28.79,330,32.75,332,55.43,318c15.86-9.77,82.65-58.92,97.59-67.16,7.18-4,19-6.62,26.06-10.87,4.71-2.83,13.67-15.58,15.84-16.62,16.8-.88,22.69-5.24,24.73-11,1.3-3.7,2.6-7,1.45-10.6,9.82,13.1,26.4,37.54,49.82,103.72.9,2.69,2.89,6.35,5.08,5.77,1.35-.36,2.36-4.11,1.32-8.33C268.45,261.08,240.21,212.7,239.65,211.32Zm-31.72-62.69c6.11.13,12,.18,17.8.45,3.44,0,10.14,7.35,11.3,9.22A94.88,94.88,0,0,0,259.94,183c4.26,3.29.3,3.9-1.18,4.19-12.82,2.54-31.45-14.79-33.28-28.45-3.29-.41-3.88.52-3.58,6.29-3.89,0-7.77.1-11.6-.23-1.06-.1-4.78-5.39-5.78-6.24C205.39,156.77,207.1,150.94,207.93,148.63Zm-1,24.73c1.92,2.78,4.17,6.83,6.09,9.6-3,2.49-7.1,2.32-10,2.29,0-3.6-.08-6.92-.12-10.45Zm-10.19,45.27c1.13-2.19,2.51-7.84,3.16-7.94,5.61-.27,11.89-3.14,16.67-4.91C217.11,214.65,204.31,218,196.73,218.63ZM210.06,203c-2.92.71-5.93,1-9.35,1.6.73-4,1.51-8.2,2.23-12.15l11.81-2C218.68,197.79,217.86,201.06,210.06,203Zm10.13-22.78c-1.33-1.94-2.46-4-4-6.58,3.81.31,6.49.91,9.12,2.89,2.92,2.22,15.87,21.1,27.41,30.79,1.61,1.35,0,3.17-2.09,3-4.43-.43-9.56-3.87-11.42-5.45C232.43,199,221.74,182.43,220.19,180.17Z"/><path class="cls-1" d="M139.49,70.77a1.53,1.53,0,0,0,2.76-.41c4.48-15.35.55-31.88-5.84-46.86-4.92-11.57-14.43-5.7-11.66,3.92C126.73,34.29,133.29,61,139.49,70.77Z"/><path class="cls-1" d="M160.32,90.49a1.54,1.54,0,0,0,2.74.23c7.91-12.78,7.87-28.26,5.09-42.84C166,36.65,155.41,40,155.9,49.12,156.25,55.61,156.52,80.64,160.32,90.49Z"/><path class="cls-1" d="M42.6,33.29C57.39,35.6,76.75,42.85,91.17,45.4a1.51,1.51,0,0,0,1.38-2.53c-12.18-13-25.84-19.77-42.61-21.21C34.17,20.31,30.19,31.35,42.6,33.29Z"/><path class="cls-1" d="M112.05,46a1.3,1.3,0,0,0,2.14-1c-.74-15.23-9.53-29.13-20-40.92C86.08-5,79.42,3,84.94,10.85,88.92,16.54,103.45,39.14,112.05,46Z"/><path class="cls-1" d="M179,113.3c9.23-10.34,11.81-24.47,11.79-38.25,0-10.69-10.19-9.44-11.3-1-.79,6-4.78,28.65-3.15,38.5A1.53,1.53,0,0,0,179,113.3Z"/><path class="cls-1" d="M266,254.23c8.64-4.08,15.11-11.7,16.86-21.26,1.56-8.49-2.12-13.77-6.53-8.38-5.19,6.35-8.9,18.17-12.33,27.7A1.46,1.46,0,0,0,266,254.23Z"/><path class="cls-1" d="M282,257.22c-1.76,2.69-9.18,12.42-9.92,18.16a1.63,1.63,0,0,0,1.87,1.66c9.25-1.34,14-7.45,16.69-14.5C292.67,257.08,284.47,253.4,282,257.22Z"/><path class="cls-1" d="M146,107.07c-10.62-4.92-30.07-6.18-48.51,2.44C85.82,115,95.2,121.6,104,120.09c19-3.25,35.07-6.29,42.18-10.21A1.57,1.57,0,0,0,146,107.07Z"/><path class="cls-1" d="M125.15,132.39c-11.05,4.82-2.78,12,5,11,16.23-2,29.41-3.94,35.56-7.18a1.7,1.7,0,0,0,.38-2.68C158.58,127.89,142.4,124.87,125.15,132.39Z"/><path class="cls-1" d="M123.47,81.78c-11.84-4.45-33-5-52,4.18-12,5.78-1.24,11.83,8.07,10,20.29-4,37.35-7.58,44.42-11.72A1.38,1.38,0,0,0,123.47,81.78Z"/><path class="cls-1" d="M99.75,59.11c-11.63-5-32.69-6.62-52,1.45C35.55,65.65,46,72.16,55.36,70.85c20.38-2.86,37.52-5.56,44.73-9.28A1.36,1.36,0,0,0,99.75,59.11Z"/><path class="cls-1" d="M235,228.18c-7.14-2.58-21.59-3.61-32.63-2.3-6.69.8-14.84,7.41-4.77,9.84s30.26,2.74,37.94-5A1.54,1.54,0,0,0,235,228.18Z"/><path class="cls-1" d="M257.52,277.5c-3.74-2.16-11-3.61-16.65-3.29-3.57.2-7.62,7.85-2.47,10.2s15.06.85,19.55-4.64A1.52,1.52,0,0,0,257.52,277.5Z"/><path class="cls-1" d="M249.21,254.53c-5.69-3.12-17.6-5.77-27-6-5.77-.14-12.89,8.7-4.77,12.1s24.22,2.64,31.89-3.54A1.56,1.56,0,0,0,249.21,254.53Z"/></g></g></svg>