<svg xmlns="http://www.w3.org/2000/svg" viewBox="0 0 26.73 31"><defs><style>.cls-1{fill:#2b4437;}</style></defs><g id="Capa_2" data-name="Capa 2"><g id="Capa_1-2" data-name="Capa 1"><path class="cls-1" d="M14.91.76c-1.91,6.75,2,15.43,9.92,13.58,3.61,0,1.43,2.62-1.12,2-6.28.52-10.41,7.25-8.94,13.22A1.28,1.28,0,0,1,14.16,31c-2.62.35-1.07-12.42-8.13-14.42a10,10,0,0,0-4.32-.2C.62,16.58,0,16.26,0,15.59c.23-1.69,3.58-1.05,4.93-1.49,9.72-.27,6.23-17.94,10-13.34M8.14,15.26c2.49,1.79,3.83,4.24,5,6.7a21.11,21.11,0,0,1,5.72-6.25c-3-.9-4.06-3.54-5.63-5.86a13.21,13.21,0,0,1-5.14,5.41"/></g></g></svg>