<svg xmlns="http://www.w3.org/2000/svg" viewBox="0 0 23.16 23.16"><defs><style>.cls-1{fill:#a78c6b;}</style></defs><g id="Capa_2" data-name="Capa 2"><g id="Contenido"><path class="cls-1" d="M17.71,4.14a1.36,1.36,0,1,0,1.36,1.35A1.35,1.35,0,0,0,17.71,4.14Z"/><path class="cls-1" d="M11.68,5.88a5.71,5.71,0,1,0,5.7,5.7A5.71,5.71,0,0,0,11.68,5.88Zm0,9.35a3.65,3.65,0,1,1,3.65-3.65A3.65,3.65,0,0,1,11.68,15.23Z"/><path class="cls-1" d="M16.2,23.16H7a7,7,0,0,1-7-7V7A7,7,0,0,1,7,0H16.2a7,7,0,0,1,7,7V16.2A7,7,0,0,1,16.2,23.16ZM7,2.18A4.78,4.78,0,0,0,2.18,7V16.2A4.78,4.78,0,0,0,7,21H16.2A4.78,4.78,0,0,0,21,16.2V7A4.78,4.78,0,0,0,16.2,2.18Z"/></g></g></svg>