<svg xmlns="http://www.w3.org/2000/svg" viewBox="0 0 22.5 22.55"><defs><style>.cls-1,.cls-2{fill:#a78c6b;}.cls-2{fill-rule:evenodd;}</style></defs><g id="Capa_2" data-name="Capa 2"><g id="Contenido"><path class="cls-1" d="M0,22.55l1.62-6a11,11,0,0,1-1.4-5.38,11.16,11.16,0,1,1,5.84,9.79Zm6.37-3.88.38.23a9.09,9.09,0,1,0-3.1-3.08l.23.39L3,19.58Z"/><path class="cls-2" d="M15.5,12.69a1.85,1.85,0,0,0-1.59-.36c-.42.17-.68.82-.95,1.15a.39.39,0,0,1-.51.11A7.23,7.23,0,0,1,8.84,10.5a.44.44,0,0,1,.06-.6,2.42,2.42,0,0,0,.65-1.07,2.29,2.29,0,0,0-.29-1.25,3,3,0,0,0-.93-1.41A1.28,1.28,0,0,0,7,6.38,2.79,2.79,0,0,0,6,8.6a4.18,4.18,0,0,0,.09.71,5.69,5.69,0,0,0,.68,1.56A12.43,12.43,0,0,0,7.44,12a10.94,10.94,0,0,0,3.07,2.84,9,9,0,0,0,1.91.91,4.18,4.18,0,0,0,2.23.35,2.7,2.7,0,0,0,2-1.5,1.33,1.33,0,0,0,.09-.76C16.64,13.26,15.93,12.94,15.5,12.69Z"/></g></g></svg>